<svg width="360" height="640" viewBox="0 0 360 640" fill="none" xmlns="http://www.w3.org/2000/svg">
<rect width="360" height="640" fill="#F5F5F5"/>
<g clip-path="url(#clip0_0_1)">
<rect width="360" height="640" fill="#9CBEC2"/>
<path fill-rule="evenodd" clip-rule="evenodd" d="M84.1466 480L42 407L-1.30127 482H0V640H360V480H84.1466Z" fill="#D9D9D9"/>
<path d="M4.128 294.208L1.632 293.824V292.224H5.824C6.48533 292.224 7.43467 292.181 8.672 292.096C9.90933 292.011 10.8373 291.968 11.456 291.968C15.424 291.968 18.368 292.971 20.288 294.976C22.2293 296.96 23.2 299.755 23.2 303.36C23.2 305.877 22.6987 308.117 21.696 310.08C20.7147 312.021 19.328 313.536 17.536 314.624C15.744 315.712 13.6853 316.256 11.36 316.256C10.848 316.256 9.97333 316.213 8.736 316.128C7.456 316.043 6.496 316 5.856 316H1.472V314.432L4.128 314.112V294.208ZM7.52 314.208C8.26667 314.379 9.22667 314.464 10.4 314.464H11.36C12.96 314.443 14.368 314.037 15.584 313.248C16.8213 312.459 17.7813 311.285 18.464 309.728C19.1467 308.149 19.488 306.24 19.488 304C19.488 300.629 18.752 298.069 17.28 296.32C15.8293 294.571 13.632 293.696 10.688 293.696C10.0693 293.696 9.33333 293.739 8.48 293.824C8.11733 293.888 7.79733 293.92 7.52 293.92V314.208ZM29.466 295.04C28.7833 295.04 28.2713 294.848 27.93 294.464C27.5887 294.08 27.418 293.589 27.418 292.992C27.418 292.309 27.6207 291.744 28.026 291.296C28.4527 290.848 29.0287 290.624 29.754 290.624C30.4793 290.624 31.0127 290.816 31.354 291.2C31.6953 291.584 31.866 292.075 31.866 292.672C31.866 293.397 31.6527 293.973 31.226 294.4C30.8207 294.827 30.2447 295.04 29.498 295.04H29.466ZM28.186 300.704L25.754 300.128V298.432L30.714 297.824H30.778L31.514 298.4V314.176L34.074 314.432V316H25.594V314.432L28.186 314.144V300.704ZM38.2663 300.704L35.9622 300.128V298.4L40.5383 297.824H40.6343L41.3063 298.4V299.744L41.2743 300.512C42.0423 299.829 43.0556 299.211 44.3142 298.656C45.5729 298.101 46.7783 297.824 47.9303 297.824C49.2743 297.824 50.3089 298.08 51.0343 298.592C51.7809 299.104 52.3036 299.893 52.6023 300.96C52.9009 302.005 53.0503 303.424 53.0503 305.216V314.176L55.2903 314.4V316H47.7063V314.432L49.6903 314.176V305.184C49.6903 303.925 49.6049 302.944 49.4343 302.24C49.2636 301.515 48.9436 300.981 48.4743 300.64C48.0049 300.277 47.3223 300.096 46.4263 300.096C45.6583 300.096 44.8369 300.288 43.9623 300.672C43.0876 301.056 42.3089 301.504 41.6263 302.016V314.144L43.8023 314.432V316H36.2503V314.432L38.2663 314.144V300.704ZM59.5163 300.704L57.2122 300.128V298.4L61.7883 297.824H61.8843L62.5563 298.4V299.744L62.5243 300.512C63.2923 299.829 64.3056 299.211 65.5642 298.656C66.8229 298.101 68.0283 297.824 69.1803 297.824C70.5243 297.824 71.5589 298.08 72.2843 298.592C73.0309 299.104 73.5536 299.893 73.8523 300.96C74.1509 302.005 74.3003 303.424 74.3003 305.216V314.176L76.5403 314.4V316H68.9563V314.432L70.9403 314.176V305.184C70.9403 303.925 70.8549 302.944 70.6843 302.24C70.5136 301.515 70.1936 300.981 69.7243 300.64C69.2549 300.277 68.5723 300.096 67.6763 300.096C66.9083 300.096 66.0869 300.288 65.2123 300.672C64.3376 301.056 63.5589 301.504 62.8763 302.016V314.144L65.0523 314.432V316H57.5003V314.432L59.5163 314.144V300.704ZM82.6223 295.04C81.9396 295.04 81.4276 294.848 81.0863 294.464C80.7449 294.08 80.5743 293.589 80.5743 292.992C80.5743 292.309 80.7769 291.744 81.1823 291.296C81.6089 290.848 82.1849 290.624 82.9103 290.624C83.6356 290.624 84.1689 290.816 84.5103 291.2C84.8516 291.584 85.0223 292.075 85.0223 292.672C85.0223 293.397 84.8089 293.973 84.3823 294.4C83.9769 294.827 83.4009 295.04 82.6543 295.04H82.6223ZM81.3423 300.704L78.9103 300.128V298.432L83.8703 297.824H83.9343L84.6703 298.4V314.176L87.2303 314.432V316H78.7503V314.432L81.3423 314.144V300.704ZM92.7345 300.288L92.1585 303.328H90.2065V298.24H103.807L104.447 299.616L95.0385 312.224L92.8305 314.208L101.439 313.92L102.783 310.336L104.639 310.56L104.062 316H89.6945L89.0225 314.592L98.5905 302.112L100.703 300.064L92.7345 300.288ZM122.655 292.032H126.175L133.951 314.112L135.935 314.432V316H127.487V314.432L130.143 314.112L128.639 309.376H119.295L117.791 314.112L120.543 314.432V316H112.959V314.432L114.943 314.112L122.655 292.032ZM124.671 297.152L123.871 294.336L123.103 297.216L119.871 307.488H128.031L124.671 297.152ZM139.531 300.352H136.523V298.88L139.531 298.272V296.768C139.531 295.445 139.873 294.229 140.555 293.12C141.259 292.011 142.166 291.136 143.275 290.496C144.406 289.835 145.601 289.504 146.859 289.504C147.585 289.504 148.214 289.6 148.747 289.792V292.992C148.555 292.821 148.171 292.661 147.595 292.512C147.041 292.341 146.422 292.256 145.739 292.256C144.737 292.256 144.001 292.523 143.531 293.056C143.083 293.568 142.859 294.464 142.859 295.744V298.272H147.275V300.352H142.859V314.176L146.411 314.432V316H136.811V314.432L139.531 314.144V300.352ZM149.848 314.432L152.248 314.24V300.704L149.944 300.128V298.4L154.36 297.824H154.424L155.128 298.4V298.976L155.032 301.472H155.128C155.341 301.109 155.725 300.64 156.28 300.064C156.834 299.488 157.549 298.965 158.424 298.496C159.298 298.005 160.248 297.76 161.272 297.76C161.698 297.76 162.05 297.813 162.328 297.92V301.504C162.178 301.397 161.933 301.301 161.592 301.216C161.272 301.109 160.909 301.056 160.504 301.056C158.733 301.056 157.09 301.6 155.576 302.688V314.208L159.64 314.464V316H149.848V314.432ZM168.216 295.04C167.533 295.04 167.021 294.848 166.68 294.464C166.339 294.08 166.168 293.589 166.168 292.992C166.168 292.309 166.371 291.744 166.776 291.296C167.203 290.848 167.779 290.624 168.504 290.624C169.229 290.624 169.763 290.816 170.104 291.2C170.445 291.584 170.616 292.075 170.616 292.672C170.616 293.397 170.403 293.973 169.976 294.4C169.571 294.827 168.995 295.04 168.248 295.04H168.216ZM166.936 300.704L164.504 300.128V298.432L169.464 297.824H169.528L170.264 298.4V314.176L172.824 314.432V316H164.344V314.432L166.936 314.144V300.704ZM177.432 292.128L174.84 291.776V290.4L179.992 289.792H180.056L180.76 290.272V314.176L183.48 314.432V316H174.84V314.432L177.432 314.144V292.128ZM189.529 295.04C188.846 295.04 188.334 294.848 187.993 294.464C187.651 294.08 187.481 293.589 187.481 292.992C187.481 292.309 187.683 291.744 188.089 291.296C188.515 290.848 189.091 290.624 189.817 290.624C190.542 290.624 191.075 290.816 191.417 291.2C191.758 291.584 191.929 292.075 191.929 292.672C191.929 293.397 191.715 293.973 191.289 294.4C190.883 294.827 190.307 295.04 189.561 295.04H189.529ZM188.249 300.704L185.817 300.128V298.432L190.777 297.824H190.841L191.577 298.4V314.176L194.137 314.432V316H185.657V314.432L188.249 314.144V300.704ZM196.409 311.2C196.409 309.195 197.411 307.723 199.417 306.784C201.422 305.824 203.961 305.312 207.033 305.248V304.352C207.033 303.349 206.926 302.56 206.713 301.984C206.499 301.408 206.126 300.992 205.593 300.736C205.081 300.459 204.345 300.32 203.385 300.32C202.297 300.32 201.315 300.48 200.441 300.8C199.587 301.099 198.734 301.472 197.881 301.92L197.081 300.256C197.358 300.021 197.87 299.712 198.617 299.328C199.363 298.944 200.227 298.603 201.209 298.304C202.19 298.005 203.171 297.856 204.153 297.856C205.667 297.856 206.862 298.069 207.737 298.496C208.633 298.901 209.273 299.563 209.657 300.48C210.041 301.397 210.233 302.624 210.233 304.16V314.432H212.121V315.84C211.694 315.947 211.15 316.053 210.489 316.16C209.849 316.267 209.283 316.32 208.793 316.32C208.195 316.32 207.79 316.224 207.577 316.032C207.363 315.861 207.257 315.467 207.257 314.848V313.792C206.617 314.432 205.827 315.019 204.889 315.552C203.971 316.085 202.926 316.352 201.753 316.352C200.217 316.352 198.937 315.915 197.913 315.04C196.91 314.144 196.409 312.864 196.409 311.2ZM203.129 314.176C203.683 314.176 204.323 314.005 205.049 313.664C205.774 313.323 206.435 312.917 207.033 312.448V306.944C204.707 306.944 202.947 307.307 201.753 308.032C200.579 308.736 199.993 309.664 199.993 310.816C199.993 311.968 200.27 312.821 200.825 313.376C201.401 313.909 202.169 314.176 203.129 314.176ZM216.266 300.704L213.962 300.128V298.4L218.538 297.824H218.634L219.306 298.4V299.744L219.274 300.512C220.042 299.829 221.056 299.211 222.314 298.656C223.573 298.101 224.778 297.824 225.93 297.824C227.274 297.824 228.309 298.08 229.034 298.592C229.781 299.104 230.304 299.893 230.602 300.96C230.901 302.005 231.05 303.424 231.05 305.216V314.176L233.29 314.4V316H225.706V314.432L227.69 314.176V305.184C227.69 303.925 227.605 302.944 227.434 302.24C227.264 301.515 226.944 300.981 226.474 300.64C226.005 300.277 225.322 300.096 224.426 300.096C223.658 300.096 222.837 300.288 221.962 300.672C221.088 301.056 220.309 301.504 219.626 302.016V314.144L221.802 314.432V316H214.25V314.432L216.266 314.144V300.704ZM251.03 316.352C249.921 316.352 248.929 316.256 248.054 316.064C247.179 315.872 246.219 315.616 245.174 315.296C244.534 315.061 244.054 314.933 243.734 314.912L243.99 309.12H246.038L246.582 313.28C246.945 313.621 247.531 313.931 248.342 314.208C249.174 314.464 250.081 314.592 251.062 314.592C252.683 314.592 253.91 314.229 254.742 313.504C255.595 312.779 256.022 311.776 256.022 310.496C256.022 309.664 255.787 308.949 255.318 308.352C254.87 307.755 254.262 307.243 253.494 306.816C252.747 306.389 251.713 305.888 250.39 305.312C249.195 304.779 248.15 304.235 247.254 303.68C246.379 303.125 245.611 302.389 244.95 301.472C244.31 300.533 243.99 299.413 243.99 298.112C243.99 296.939 244.299 295.893 244.918 294.976C245.558 294.037 246.465 293.301 247.638 292.768C248.833 292.235 250.219 291.968 251.798 291.968C252.779 291.968 253.643 292.043 254.39 292.192C255.158 292.341 256.022 292.544 256.982 292.8C257.409 292.949 257.771 293.045 258.07 293.088L257.878 298.464H255.926L255.286 294.528C255.073 294.315 254.625 294.112 253.942 293.92C253.281 293.728 252.555 293.632 251.766 293.632C250.294 293.632 249.174 293.941 248.406 294.56C247.659 295.179 247.286 296.075 247.286 297.248C247.286 298.101 247.51 298.816 247.958 299.392C248.427 299.968 249.003 300.459 249.686 300.864C250.369 301.269 251.457 301.824 252.95 302.528C254.337 303.189 255.467 303.787 256.342 304.32C257.217 304.853 257.963 305.557 258.582 306.432C259.222 307.285 259.542 308.309 259.542 309.504C259.542 310.635 259.222 311.723 258.582 312.768C257.963 313.813 257.003 314.677 255.702 315.36C254.422 316.021 252.865 316.352 251.03 316.352ZM264.782 323.968C264.419 323.968 264.057 323.947 263.694 323.904C263.353 323.861 263.107 323.797 262.958 323.712V320.928C263.086 321.013 263.331 321.077 263.694 321.12C264.078 321.163 264.441 321.184 264.782 321.184C265.806 321.184 266.702 320.821 267.47 320.096C268.259 319.392 269.017 318.027 269.742 316H268.206L262.126 300.16L260.654 299.744V298.24H268.366V299.744L265.902 300.128L269.038 309.568L270.51 314.24L271.886 309.536L274.734 300.128L272.59 299.744V298.24H279.022V299.744L277.422 300.128C274.286 309.728 272.441 315.179 271.886 316.48C271.161 318.315 270.499 319.744 269.902 320.768C269.305 321.813 268.601 322.603 267.79 323.136C266.979 323.691 265.977 323.968 264.782 323.968ZM280.503 311.2C280.503 309.195 281.505 307.723 283.511 306.784C285.516 305.824 288.055 305.312 291.127 305.248V304.352C291.127 303.349 291.02 302.56 290.807 301.984C290.593 301.408 290.22 300.992 289.687 300.736C289.175 300.459 288.439 300.32 287.479 300.32C286.391 300.32 285.409 300.48 284.535 300.8C283.681 301.099 282.828 301.472 281.975 301.92L281.174 300.256C281.452 300.021 281.964 299.712 282.711 299.328C283.457 298.944 284.321 298.603 285.303 298.304C286.284 298.005 287.265 297.856 288.247 297.856C289.761 297.856 290.956 298.069 291.831 298.496C292.727 298.901 293.367 299.563 293.751 300.48C294.135 301.397 294.327 302.624 294.327 304.16V314.432H296.215V315.84C295.788 315.947 295.244 316.053 294.583 316.16C293.943 316.267 293.377 316.32 292.887 316.32C292.289 316.32 291.884 316.224 291.671 316.032C291.457 315.861 291.351 315.467 291.351 314.848V313.792C290.711 314.432 289.921 315.019 288.983 315.552C288.065 316.085 287.02 316.352 285.847 316.352C284.311 316.352 283.031 315.915 282.007 315.04C281.004 314.144 280.503 312.864 280.503 311.2ZM287.223 314.176C287.777 314.176 288.417 314.005 289.143 313.664C289.868 313.323 290.529 312.917 291.127 312.448V306.944C288.801 306.944 287.041 307.307 285.847 308.032C284.673 308.736 284.087 309.664 284.087 310.816C284.087 311.968 284.364 312.821 284.919 313.376C285.495 313.909 286.263 314.176 287.223 314.176ZM300.168 292.128L297.48 291.776V290.4L302.696 289.792H302.76L303.464 290.272V297.696L303.336 300.416C304.019 299.797 304.957 299.211 306.152 298.656C307.347 298.101 308.552 297.824 309.768 297.824C311.112 297.824 312.157 298.08 312.904 298.592C313.651 299.104 314.173 299.893 314.472 300.96C314.771 302.005 314.92 303.424 314.92 305.216V314.144L317.16 314.432V316H309.512V314.432L311.592 314.144V305.184C311.592 303.925 311.507 302.944 311.336 302.24C311.165 301.515 310.845 300.981 310.376 300.64C309.907 300.277 309.203 300.096 308.264 300.096C307.496 300.096 306.675 300.288 305.8 300.672C304.925 301.056 304.157 301.504 303.496 302.016V314.144L305.704 314.432V316H298.248V314.432L300.168 314.176V292.128Z" fill="black"/>
<rect x="190" y="343" width="170" height="38" fill="#D9D9D9"/>
<path d="M203.828 369.766C203.945 369.617 204.129 369.418 204.379 369.168C204.629 368.91 204.918 368.609 205.246 368.266C205.574 367.914 205.926 367.523 206.301 367.094C206.676 366.664 207.051 366.199 207.426 365.699C207.801 365.199 208.16 364.668 208.504 364.105C208.855 363.535 209.164 362.941 209.43 362.324C209.695 361.707 209.906 361.066 210.062 360.402C210.227 359.738 210.309 359.059 210.309 358.363C210.309 357.621 210.219 356.98 210.039 356.441C209.867 355.895 209.629 355.445 209.324 355.094C209.02 354.734 208.66 354.469 208.246 354.297C207.84 354.125 207.398 354.039 206.922 354.039C206.328 354.039 205.789 354.141 205.305 354.344C204.828 354.539 204.41 354.77 204.051 355.035C203.699 355.301 203.41 355.566 203.184 355.832C202.965 356.098 202.816 356.301 202.738 356.441L202.574 356.371L203.371 353.992C203.785 353.805 204.172 353.645 204.531 353.512C204.898 353.371 205.266 353.258 205.633 353.172C206.008 353.086 206.391 353.023 206.781 352.984C207.18 352.938 207.617 352.914 208.094 352.914C208.414 352.914 208.754 352.949 209.113 353.02C209.473 353.09 209.828 353.203 210.18 353.359C210.531 353.516 210.863 353.719 211.176 353.969C211.496 354.211 211.777 354.512 212.02 354.871C212.27 355.223 212.465 355.633 212.605 356.102C212.754 356.57 212.828 357.105 212.828 357.707C212.828 358.348 212.73 358.992 212.535 359.641C212.34 360.281 212.082 360.914 211.762 361.539C211.441 362.156 211.074 362.762 210.66 363.355C210.246 363.949 209.82 364.516 209.383 365.055C208.945 365.594 208.512 366.102 208.082 366.578C207.652 367.047 207.266 367.477 206.922 367.867H211.434C211.723 367.867 212.004 367.863 212.277 367.855C212.559 367.84 212.816 367.82 213.051 367.797C213.285 367.766 213.488 367.727 213.66 367.68C213.84 367.633 213.977 367.574 214.07 367.504H214.117V370H203.828V369.766ZM217.562 361.691C217.562 362.332 217.645 362.949 217.809 363.543C217.973 364.137 218.199 364.695 218.488 365.219C218.785 365.734 219.141 366.207 219.555 366.637C219.977 367.066 220.441 367.434 220.949 367.738C221.465 368.043 222.016 368.281 222.602 368.453C223.188 368.617 223.801 368.699 224.441 368.699C225.082 368.699 225.695 368.617 226.281 368.453C226.875 368.281 227.426 368.043 227.934 367.738C228.449 367.434 228.914 367.066 229.328 366.637C229.742 366.207 230.098 365.734 230.395 365.219C230.691 364.695 230.922 364.137 231.086 363.543C231.25 362.949 231.332 362.332 231.332 361.691C231.332 360.73 231.152 359.828 230.793 358.984C230.434 358.133 229.941 357.391 229.316 356.758C228.699 356.117 227.973 355.613 227.137 355.246C226.301 354.871 225.402 354.684 224.441 354.684C223.48 354.684 222.582 354.871 221.746 355.246C220.91 355.613 220.18 356.117 219.555 356.758C218.938 357.391 218.449 358.133 218.09 358.984C217.738 359.828 217.562 360.73 217.562 361.691ZM215.734 361.645C215.734 360.848 215.836 360.078 216.039 359.336C216.25 358.594 216.543 357.902 216.918 357.262C217.301 356.613 217.758 356.023 218.289 355.492C218.82 354.961 219.406 354.508 220.047 354.133C220.695 353.75 221.391 353.457 222.133 353.254C222.875 353.043 223.645 352.938 224.441 352.938C225.238 352.938 226.008 353.043 226.75 353.254C227.492 353.457 228.188 353.75 228.836 354.133C229.484 354.508 230.074 354.961 230.605 355.492C231.137 356.023 231.59 356.613 231.965 357.262C232.348 357.902 232.641 358.594 232.844 359.336C233.055 360.078 233.16 360.848 233.16 361.645C233.16 362.449 233.055 363.223 232.844 363.965C232.641 364.699 232.348 365.391 231.965 366.039C231.59 366.688 231.137 367.277 230.605 367.809C230.074 368.34 229.484 368.797 228.836 369.18C228.188 369.555 227.492 369.844 226.75 370.047C226.008 370.258 225.238 370.363 224.441 370.363C223.645 370.363 222.875 370.258 222.133 370.047C221.391 369.844 220.695 369.555 220.047 369.18C219.406 368.797 218.82 368.34 218.289 367.809C217.758 367.277 217.301 366.688 216.918 366.039C216.543 365.391 216.25 364.699 216.039 363.965C215.836 363.223 215.734 362.449 215.734 361.645ZM236.922 361.691C236.922 362.332 237.004 362.949 237.168 363.543C237.332 364.137 237.559 364.695 237.848 365.219C238.145 365.734 238.5 366.207 238.914 366.637C239.336 367.066 239.801 367.434 240.309 367.738C240.824 368.043 241.375 368.281 241.961 368.453C242.547 368.617 243.16 368.699 243.801 368.699C244.441 368.699 245.055 368.617 245.641 368.453C246.234 368.281 246.785 368.043 247.293 367.738C247.809 367.434 248.273 367.066 248.688 366.637C249.102 366.207 249.457 365.734 249.754 365.219C250.051 364.695 250.281 364.137 250.445 363.543C250.609 362.949 250.691 362.332 250.691 361.691C250.691 360.73 250.512 359.828 250.152 358.984C249.793 358.133 249.301 357.391 248.676 356.758C248.059 356.117 247.332 355.613 246.496 355.246C245.66 354.871 244.762 354.684 243.801 354.684C242.84 354.684 241.941 354.871 241.105 355.246C240.27 355.613 239.539 356.117 238.914 356.758C238.297 357.391 237.809 358.133 237.449 358.984C237.098 359.828 236.922 360.73 236.922 361.691ZM235.094 361.645C235.094 360.848 235.195 360.078 235.398 359.336C235.609 358.594 235.902 357.902 236.277 357.262C236.66 356.613 237.117 356.023 237.648 355.492C238.18 354.961 238.766 354.508 239.406 354.133C240.055 353.75 240.75 353.457 241.492 353.254C242.234 353.043 243.004 352.938 243.801 352.938C244.598 352.938 245.367 353.043 246.109 353.254C246.852 353.457 247.547 353.75 248.195 354.133C248.844 354.508 249.434 354.961 249.965 355.492C250.496 356.023 250.949 356.613 251.324 357.262C251.707 357.902 252 358.594 252.203 359.336C252.414 360.078 252.52 360.848 252.52 361.645C252.52 362.449 252.414 363.223 252.203 363.965C252 364.699 251.707 365.391 251.324 366.039C250.949 366.688 250.496 367.277 249.965 367.809C249.434 368.34 248.844 368.797 248.195 369.18C247.547 369.555 246.852 369.844 246.109 370.047C245.367 370.258 244.598 370.363 243.801 370.363C243.004 370.363 242.234 370.258 241.492 370.047C240.75 369.844 240.055 369.555 239.406 369.18C238.766 368.797 238.18 368.34 237.648 367.809C237.117 367.277 236.66 366.688 236.277 366.039C235.902 365.391 235.609 364.699 235.398 363.965C235.195 363.223 235.094 362.449 235.094 361.645ZM256.855 360.203C257.277 360.148 257.715 360.043 258.168 359.887C258.629 359.723 259.051 359.496 259.434 359.207C259.824 358.918 260.145 358.555 260.395 358.117C260.645 357.68 260.77 357.152 260.77 356.535C260.77 356.184 260.719 355.855 260.617 355.551C260.516 355.238 260.355 354.965 260.137 354.73C259.926 354.496 259.652 354.312 259.316 354.18C258.988 354.039 258.598 353.969 258.145 353.969C257.613 353.969 257.133 354.043 256.703 354.191C256.281 354.34 255.902 354.527 255.566 354.754C255.23 354.98 254.938 355.234 254.688 355.516C254.438 355.789 254.23 356.059 254.066 356.324L253.902 356.242L254.664 353.828C254.969 353.703 255.277 353.586 255.59 353.477C255.902 353.359 256.23 353.262 256.574 353.184C256.926 353.098 257.297 353.031 257.688 352.984C258.086 352.938 258.52 352.914 258.988 352.914C259.23 352.914 259.5 352.938 259.797 352.984C260.094 353.023 260.395 353.094 260.699 353.195C261.012 353.297 261.312 353.434 261.602 353.605C261.891 353.77 262.148 353.977 262.375 354.227C262.609 354.477 262.793 354.773 262.926 355.117C263.066 355.453 263.137 355.84 263.137 356.277C263.137 356.824 263.027 357.305 262.809 357.719C262.59 358.125 262.32 358.48 262 358.785C261.68 359.082 261.34 359.328 260.98 359.523C260.621 359.711 260.301 359.859 260.02 359.969C260.488 360.008 260.965 360.105 261.449 360.262C261.941 360.418 262.387 360.656 262.785 360.977C263.184 361.289 263.508 361.699 263.758 362.207C264.016 362.715 264.145 363.336 264.145 364.07C264.145 364.906 263.988 365.699 263.676 366.449C263.371 367.199 262.957 367.898 262.434 368.547C261.91 369.195 261.305 369.793 260.617 370.34C259.93 370.887 259.203 371.375 258.438 371.805C257.68 372.234 256.906 372.605 256.117 372.918C255.336 373.23 254.59 373.473 253.879 373.645L253.656 373.047C254.781 372.766 255.828 372.367 256.797 371.852C257.766 371.336 258.605 370.711 259.316 369.977C260.035 369.234 260.598 368.387 261.004 367.434C261.418 366.48 261.625 365.426 261.625 364.27C261.625 363.621 261.531 363.078 261.344 362.641C261.156 362.203 260.91 361.855 260.605 361.598C260.309 361.332 259.973 361.145 259.598 361.035C259.23 360.918 258.859 360.859 258.484 360.859C258.258 360.859 258.047 360.871 257.852 360.895C257.656 360.918 257.484 360.945 257.336 360.977C257.164 361.008 257.004 361.047 256.855 361.094V360.203ZM268.375 361.691C268.375 362.332 268.457 362.949 268.621 363.543C268.785 364.137 269.012 364.695 269.301 365.219C269.598 365.734 269.953 366.207 270.367 366.637C270.789 367.066 271.254 367.434 271.762 367.738C272.277 368.043 272.828 368.281 273.414 368.453C274 368.617 274.613 368.699 275.254 368.699C275.895 368.699 276.508 368.617 277.094 368.453C277.688 368.281 278.238 368.043 278.746 367.738C279.262 367.434 279.727 367.066 280.141 366.637C280.555 366.207 280.91 365.734 281.207 365.219C281.504 364.695 281.734 364.137 281.898 363.543C282.062 362.949 282.145 362.332 282.145 361.691C282.145 360.73 281.965 359.828 281.605 358.984C281.246 358.133 280.754 357.391 280.129 356.758C279.512 356.117 278.785 355.613 277.949 355.246C277.113 354.871 276.215 354.684 275.254 354.684C274.293 354.684 273.395 354.871 272.559 355.246C271.723 355.613 270.992 356.117 270.367 356.758C269.75 357.391 269.262 358.133 268.902 358.984C268.551 359.828 268.375 360.73 268.375 361.691ZM266.547 361.645C266.547 360.848 266.648 360.078 266.852 359.336C267.062 358.594 267.355 357.902 267.73 357.262C268.113 356.613 268.57 356.023 269.102 355.492C269.633 354.961 270.219 354.508 270.859 354.133C271.508 353.75 272.203 353.457 272.945 353.254C273.688 353.043 274.457 352.938 275.254 352.938C276.051 352.938 276.82 353.043 277.562 353.254C278.305 353.457 279 353.75 279.648 354.133C280.297 354.508 280.887 354.961 281.418 355.492C281.949 356.023 282.402 356.613 282.777 357.262C283.16 357.902 283.453 358.594 283.656 359.336C283.867 360.078 283.973 360.848 283.973 361.645C283.973 362.449 283.867 363.223 283.656 363.965C283.453 364.699 283.16 365.391 282.777 366.039C282.402 366.688 281.949 367.277 281.418 367.809C280.887 368.34 280.297 368.797 279.648 369.18C279 369.555 278.305 369.844 277.562 370.047C276.82 370.258 276.051 370.363 275.254 370.363C274.457 370.363 273.688 370.258 272.945 370.047C272.203 369.844 271.508 369.555 270.859 369.18C270.219 368.797 269.633 368.34 269.102 367.809C268.57 367.277 268.113 366.688 267.73 366.039C267.355 365.391 267.062 364.699 266.852 363.965C266.648 363.223 266.547 362.449 266.547 361.645ZM295.773 352.914V352.961C295.734 353.125 295.699 353.328 295.668 353.57C295.637 353.812 295.609 354.113 295.586 354.473C295.57 354.832 295.555 355.262 295.539 355.762C295.531 356.254 295.527 356.832 295.527 357.496V364.715C296.238 364.699 296.816 364.676 297.262 364.645C297.715 364.613 298.074 364.566 298.34 364.504H298.387V366.18H298.34C298.074 366.133 297.715 366.09 297.262 366.051C296.816 366.012 296.238 365.984 295.527 365.969C295.535 366.539 295.547 367.039 295.562 367.469C295.578 367.898 295.602 368.273 295.633 368.594C295.664 368.906 295.699 369.176 295.738 369.402C295.777 369.621 295.82 369.805 295.867 369.953V370H293.055V369.953C293.102 369.805 293.145 369.621 293.184 369.402C293.223 369.176 293.254 368.906 293.277 368.594C293.309 368.273 293.332 367.898 293.348 367.469C293.371 367.039 293.387 366.539 293.395 365.969H285.355V365.441L295.527 352.914H295.773ZM293.395 364.715V357.355L287.465 364.715H293.395ZM301.492 361.691C301.492 362.332 301.574 362.949 301.738 363.543C301.902 364.137 302.129 364.695 302.418 365.219C302.715 365.734 303.07 366.207 303.484 366.637C303.906 367.066 304.371 367.434 304.879 367.738C305.395 368.043 305.945 368.281 306.531 368.453C307.117 368.617 307.73 368.699 308.371 368.699C309.012 368.699 309.625 368.617 310.211 368.453C310.805 368.281 311.355 368.043 311.863 367.738C312.379 367.434 312.844 367.066 313.258 366.637C313.672 366.207 314.027 365.734 314.324 365.219C314.621 364.695 314.852 364.137 315.016 363.543C315.18 362.949 315.262 362.332 315.262 361.691C315.262 360.73 315.082 359.828 314.723 358.984C314.363 358.133 313.871 357.391 313.246 356.758C312.629 356.117 311.902 355.613 311.066 355.246C310.23 354.871 309.332 354.684 308.371 354.684C307.41 354.684 306.512 354.871 305.676 355.246C304.84 355.613 304.109 356.117 303.484 356.758C302.867 357.391 302.379 358.133 302.02 358.984C301.668 359.828 301.492 360.73 301.492 361.691ZM299.664 361.645C299.664 360.848 299.766 360.078 299.969 359.336C300.18 358.594 300.473 357.902 300.848 357.262C301.23 356.613 301.688 356.023 302.219 355.492C302.75 354.961 303.336 354.508 303.977 354.133C304.625 353.75 305.32 353.457 306.062 353.254C306.805 353.043 307.574 352.938 308.371 352.938C309.168 352.938 309.938 353.043 310.68 353.254C311.422 353.457 312.117 353.75 312.766 354.133C313.414 354.508 314.004 354.961 314.535 355.492C315.066 356.023 315.52 356.613 315.895 357.262C316.277 357.902 316.57 358.594 316.773 359.336C316.984 360.078 317.09 360.848 317.09 361.645C317.09 362.449 316.984 363.223 316.773 363.965C316.57 364.699 316.277 365.391 315.895 366.039C315.52 366.688 315.066 367.277 314.535 367.809C314.004 368.34 313.414 368.797 312.766 369.18C312.117 369.555 311.422 369.844 310.68 370.047C309.938 370.258 309.168 370.363 308.371 370.363C307.574 370.363 306.805 370.258 306.062 370.047C305.32 369.844 304.625 369.555 303.977 369.18C303.336 368.797 302.75 368.34 302.219 367.809C301.688 367.277 301.23 366.688 300.848 366.039C300.473 365.391 300.18 364.699 299.969 363.965C299.766 363.223 299.664 362.449 299.664 361.645ZM320.852 361.691C320.852 362.332 320.934 362.949 321.098 363.543C321.262 364.137 321.488 364.695 321.777 365.219C322.074 365.734 322.43 366.207 322.844 366.637C323.266 367.066 323.73 367.434 324.238 367.738C324.754 368.043 325.305 368.281 325.891 368.453C326.477 368.617 327.09 368.699 327.73 368.699C328.371 368.699 328.984 368.617 329.57 368.453C330.164 368.281 330.715 368.043 331.223 367.738C331.738 367.434 332.203 367.066 332.617 366.637C333.031 366.207 333.387 365.734 333.684 365.219C333.98 364.695 334.211 364.137 334.375 363.543C334.539 362.949 334.621 362.332 334.621 361.691C334.621 360.73 334.441 359.828 334.082 358.984C333.723 358.133 333.23 357.391 332.605 356.758C331.988 356.117 331.262 355.613 330.426 355.246C329.59 354.871 328.691 354.684 327.73 354.684C326.77 354.684 325.871 354.871 325.035 355.246C324.199 355.613 323.469 356.117 322.844 356.758C322.227 357.391 321.738 358.133 321.379 358.984C321.027 359.828 320.852 360.73 320.852 361.691ZM319.023 361.645C319.023 360.848 319.125 360.078 319.328 359.336C319.539 358.594 319.832 357.902 320.207 357.262C320.59 356.613 321.047 356.023 321.578 355.492C322.109 354.961 322.695 354.508 323.336 354.133C323.984 353.75 324.68 353.457 325.422 353.254C326.164 353.043 326.934 352.938 327.73 352.938C328.527 352.938 329.297 353.043 330.039 353.254C330.781 353.457 331.477 353.75 332.125 354.133C332.773 354.508 333.363 354.961 333.895 355.492C334.426 356.023 334.879 356.613 335.254 357.262C335.637 357.902 335.93 358.594 336.133 359.336C336.344 360.078 336.449 360.848 336.449 361.645C336.449 362.449 336.344 363.223 336.133 363.965C335.93 364.699 335.637 365.391 335.254 366.039C334.879 366.688 334.426 367.277 333.895 367.809C333.363 368.34 332.773 368.797 332.125 369.18C331.477 369.555 330.781 369.844 330.039 370.047C329.297 370.258 328.527 370.363 327.73 370.363C326.934 370.363 326.164 370.258 325.422 370.047C324.68 369.844 323.984 369.555 323.336 369.18C322.695 368.797 322.109 368.34 321.578 367.809C321.047 367.277 320.59 366.688 320.207 366.039C319.832 365.391 319.539 364.699 319.328 363.965C319.125 363.223 319.023 362.449 319.023 361.645ZM339.602 369.953C339.648 369.789 339.691 369.586 339.73 369.344C339.777 369.102 339.816 368.801 339.848 368.441C339.879 368.082 339.902 367.656 339.918 367.164C339.934 366.664 339.941 366.082 339.941 365.418V357.789C339.941 357.125 339.895 356.598 339.801 356.207C339.707 355.816 339.594 355.516 339.461 355.305C339.336 355.094 339.203 354.941 339.062 354.848C338.93 354.754 338.816 354.668 338.723 354.59V354.543L342.32 353.195V353.242C342.273 353.406 342.227 353.609 342.18 353.852C342.141 354.094 342.105 354.398 342.074 354.766C342.043 355.125 342.02 355.555 342.004 356.055C341.988 356.547 341.98 357.125 341.98 357.789V365.418C341.98 366.082 341.988 366.664 342.004 367.164C342.02 367.656 342.043 368.082 342.074 368.441C342.105 368.801 342.141 369.102 342.18 369.344C342.227 369.586 342.273 369.789 342.32 369.953V370H339.602V369.953ZM346.68 369.953C346.727 369.789 346.77 369.586 346.809 369.344C346.855 369.102 346.895 368.801 346.926 368.441C346.957 368.082 346.98 367.656 346.996 367.164C347.012 366.664 347.02 366.082 347.02 365.418V357.789C347.02 357.125 346.973 356.598 346.879 356.207C346.785 355.816 346.672 355.516 346.539 355.305C346.414 355.094 346.281 354.941 346.141 354.848C346.008 354.754 345.895 354.668 345.801 354.59V354.543L349.398 353.195V353.242C349.352 353.406 349.305 353.609 349.258 353.852C349.219 354.094 349.184 354.398 349.152 354.766C349.121 355.125 349.098 355.555 349.082 356.055C349.066 356.547 349.059 357.125 349.059 357.789V365.418C349.059 366.082 349.066 366.664 349.082 367.164C349.098 367.656 349.121 368.082 349.152 368.441C349.184 368.801 349.219 369.102 349.258 369.344C349.305 369.586 349.352 369.789 349.398 369.953V370H346.68V369.953Z" fill="black"/>
</g>
<defs>
<clipPath id="clip0_0_1">
<rect width="360" height="640" fill="white"/>
</clipPath>
</defs>
</svg>
